<svg xmlns="http://www.w3.org/2000/svg" viewBox="0 0 1801 651.57"><defs><style>.cls-1{fill:#4f2837;stroke:#1ba5b8;}.cls-1,.cls-3{stroke-miterlimit:10;}.cls-2{fill:#141411;opacity:0.18;}.cls-3{fill:none;stroke-width:2px;}.cls-3,.cls-4{stroke:#fff;}.cls-4{fill:#1d1d1b;stroke-width:0.65px;}.cls-5{font-size:123px;fill:#fff;font-family:CrimsonText-Bold, Crimson Text;font-weight:700;}</style></defs><title>induction</title><g id="Background"><rect class="cls-1" x="0.5" y="0.5" width="1800" height="600"/></g><g id="Arrow"><path class="cls-2" d="M1375.6,539.76c-41.56-36-76.09-124.66-4.59-169.32,139.7-87.26,13.24-163.74-3.37-174H1245.28l242.6-169.91L1751.29,195.4l-130.47,1.07c12.74,12.21,108.66,98.75-15.88,179.08-83.8,54-42.37,130.76,8.21,164.12Z" transform="translate(0.5 0.5)"/></g><g id="Ladder"><line class="cls-3" x1="1481.98" y1="24.6" x2="1393.6" y2="560.08"/><line class="cls-3" x1="1499.82" y1="24.6" x2="1588.5" y2="560.08"/><line class="cls-3" x1="1481.81" y1="25.62" x2="1499.99" y2="25.62"/><line class="cls-3" x1="1481.72" y1="26.16" x2="1500.08" y2="26.16"/><line class="cls-3" x1="1481.58" y1="27.05" x2="1500.22" y2="27.05"/><line class="cls-3" x1="1481.39" y1="28.21" x2="1500.41" y2="28.21"/><line class="cls-3" x1="1481.19" y1="29.41" x2="1500.61" y2="29.41"/><line class="cls-3" x1="1480.94" y1="30.9" x2="1500.86" y2="30.9"/><line class="cls-3" x1="1480.6" y1="32.98" x2="1501.21" y2="32.98"/><line class="cls-3" x1="1480.16" y1="35.61" x2="1501.64" y2="35.61"/><line class="cls-3" x1="1479.57" y1="39.21" x2="1502.24" y2="39.21"/><line class="cls-3" x1="1479.13" y1="41.87" x2="1502.68" y2="41.87"/><line class="cls-3" x1="1478.55" y1="45.38" x2="1503.26" y2="45.38"/><line class="cls-3" x1="1477.87" y1="49.26" x2="1503.86" y2="49.26"/><line class="cls-3" x1="1477.15" y1="53.57" x2="1504.57" y2="53.57"/><line class="cls-3" x1="1476.41" y1="58.37" x2="1505.41" y2="58.37"/><line class="cls-3" x1="1475.46" y1="63.76" x2="1506.25" y2="63.76"/><line class="cls-3" x1="1474.45" y1="69.86" x2="1507.26" y2="69.86"/><line class="cls-3" x1="1473.3" y1="76.82" x2="1508.4" y2="76.82"/><line class="cls-3" x1="1471.98" y1="84.82" x2="1509.73" y2="84.82"/><line class="cls-3" x1="1470.43" y1="94.13" x2="1511.26" y2="94.13"/><line class="cls-3" x1="1468.7" y1="105.09" x2="1513.15" y2="105.09"/><line class="cls-3" x1="1466.45" y1="118.19" x2="1515.23" y2="118.19"/><line class="cls-3" x1="1463.81" y1="134.12" x2="1517.86" y2="134.12"/><line class="cls-3" x1="1460.64" y1="153.9" x2="1521.23" y2="153.9"/><line class="cls-3" x1="1456.36" y1="179.13" x2="1525.29" y2="179.13"/><line class="cls-3" x1="1450.84" y1="212.42" x2="1530.79" y2="212.42"/><line class="cls-3" x1="1444.57" y1="249.35" x2="1537.04" y2="249.35"/><line class="cls-3" x1="1432.06" y1="325.84" x2="1549.51" y2="325.84"/><line class="cls-3" x1="1438.92" y1="285.5" x2="1543.03" y2="285.5"/><line class="cls-3" x1="1414.3" y1="434.69" x2="1567.73" y2="434.69"/><line class="cls-3" x1="1402.09" y1="508.5" x2="1579.96" y2="508.5"/><line class="cls-3" x1="1423.4" y1="379.5" x2="1558.59" y2="379.5"/></g><g id="People"><g id="Figure_with_Child" data-name="Figure with Child"><rect class="cls-4" x="1441.6" y="466.04" width="11.96" height="57.23"/><polygon class="cls-4" points="1492.64 536.11 1492.64 466.04 1453.56 466.04 1453.56 538.4 1453.58 538.4 1453.58 599.31 1467.43 599.31 1467.43 537.94 1478.85 537.94 1478.85 599.31 1492.71 599.31 1492.71 536.11 1492.64 536.11"/><circle class="cls-4" cx="1472.57" cy="449.16" r="16.88"/><polygon class="cls-4" points="1542.74 522.35 1509.83 504.81 1509.41 513.14 1542.33 530.67 1542.74 522.35"/><rect class="cls-4" x="1565.84" y="520.52" width="7.07" height="32.64"/><polygon class="cls-4" points="1542.74 561.94 1542.74 520.52 1565.84 520.52 1565.84 563.3 1565.83 563.3 1565.83 599.31 1557.64 599.31 1557.64 563.02 1550.88 563.02 1550.88 599.31 1542.69 599.31 1542.69 561.94 1542.74 561.94"/><circle class="cls-4" cx="1554.61" cy="510.54" r="9.98"/><polygon class="cls-4" points="1504.59 466.04 1524.38 521.04 1509.41 513.14 1492.63 466.04 1504.59 466.04"/></g></g><g id="Child"><rect class="cls-4" x="1509.74" y="337.53" width="7.7" height="35.52"/><rect class="cls-4" x="1476.85" y="337.53" width="7.7" height="35.52"/><polygon class="cls-4" points="1484.59 382.62 1484.59 337.53 1509.74 337.53 1509.74 384.09 1509.73 384.09 1509.73 423.28 1500.81 423.28 1500.81 383.79 1493.46 383.79 1493.46 423.28 1484.55 423.28 1484.55 382.62 1484.59 382.62"/><circle class="cls-4" cx="1497.51" cy="326.67" r="10.86"/><rect class="cls-4" x="1504.85" y="197.64" width="5.38" height="24.84"/><rect class="cls-4" x="1481.85" y="197.64" width="5.38" height="24.84"/><polygon class="cls-4" points="1487.26 229.16 1487.26 197.64 1504.85 197.64 1504.85 230.19 1504.84 230.19 1504.84 257.59 1498.6 257.59 1498.6 229.98 1493.46 229.98 1493.46 257.59 1487.23 257.59 1487.23 229.16 1487.26 229.16"/><circle class="cls-4" cx="1496.29" cy="190.04" r="7.59"/><rect class="cls-4" x="1495.13" y="85.37" width="2.2" height="10.16"/><rect class="cls-4" x="1485.72" y="85.37" width="2.2" height="10.16"/><polygon class="cls-4" points="1487.93 98.27 1487.93 85.37 1495.13 85.37 1495.13 98.69 1495.13 98.69 1495.13 109.91 1492.57 109.91 1492.57 98.61 1490.47 98.61 1490.47 109.91 1487.92 109.91 1487.92 98.27 1487.93 98.27"/><circle class="cls-4" cx="1491.63" cy="82.26" r="3.11"/><text class="cls-5" transform="translate(128.13 257.58)">Mathematical <tspan x="0" y="147.6">Induction</tspan></text></g></svg>